<svg width="4" height="14" viewBox="0 0 4 14" fill="none" xmlns="http://www.w3.org/2000/svg">
<path d="M1.99992 3.66659C2.91659 3.66659 3.66659 2.91659 3.66659 1.99992C3.66659 1.08325 2.91659 0.333252 1.99992 0.333252C1.08325 0.333252 0.333252 1.08325 0.333252 1.99992C0.333252 2.91659 1.08325 3.66659 1.99992 3.66659ZM1.99992 5.33325C1.08325 5.33325 0.333252 6.08325 0.333252 6.99992C0.333252 7.91658 1.08325 8.66658 1.99992 8.66658C2.91659 8.66658 3.66659 7.91658 3.66659 6.99992C3.66659 6.08325 2.91659 5.33325 1.99992 5.33325ZM1.99992 10.3333C1.08325 10.3333 0.333252 11.0833 0.333252 11.9999C0.333252 12.9166 1.08325 13.6666 1.99992 13.6666C2.91659 13.6666 3.66659 12.9166 3.66659 11.9999C3.66659 11.0833 2.91659 10.3333 1.99992 10.3333Z" fill="#878787"/>
</svg>
