<svg width="20" height="20" viewBox="0 0 20 20" fill="none" xmlns="http://www.w3.org/2000/svg">
<path d="M18.0887 4.40996L15.5895 1.91079C15.5122 1.83326 15.4204 1.77177 15.3193 1.72986C15.2182 1.68796 15.1098 1.66647 15.0003 1.66663H5.00033C4.89087 1.66647 4.78247 1.68796 4.68136 1.72986C4.58024 1.77177 4.48842 1.83326 4.41116 1.91079L1.91199 4.40996C1.83413 4.48719 1.77238 4.57911 1.73033 4.68039C1.68827 4.78167 1.66674 4.89029 1.66699 4.99996V15.8333C1.66699 16.7525 2.41449 17.5 3.33366 17.5H16.667C17.5862 17.5 18.3337 16.7525 18.3337 15.8333V4.99996C18.3339 4.89029 18.3124 4.78167 18.2703 4.68039C18.2283 4.57911 18.1665 4.48719 18.0887 4.40996ZM5.34533 3.33329H14.6553L15.4887 4.16663H4.51199L5.34533 3.33329ZM3.33366 15.8333V5.83329H16.667L16.6687 15.8333H3.33366Z" fill="black"/>
<path d="M11.6663 7.5H8.33301V10H5.83301L9.99967 14.1667L14.1663 10H11.6663V7.5Z" fill="black"/>
</svg>
