<svg width="38" height="24" viewBox="0 0 38 24" fill="none" xmlns="http://www.w3.org/2000/svg">
<path fill-rule="evenodd" clip-rule="evenodd" d="M37.375 12C37.375 12.3481 37.2367 12.6819 36.9906 12.9281C36.7444 13.1742 36.4106 13.3125 36.0625 13.3125L5.10587 13.3125L13.3668 21.5707C13.6132 21.8172 13.7517 22.1515 13.7517 22.5C13.7517 22.8485 13.6132 23.1828 13.3668 23.4292C13.1203 23.6757 12.786 23.8141 12.4375 23.8141C12.089 23.8141 11.7547 23.6757 11.5082 23.4292L1.00825 12.9292C0.886021 12.8073 0.789047 12.6625 0.722881 12.503C0.656712 12.3436 0.622654 12.1726 0.622654 12C0.622654 11.8274 0.656712 11.6564 0.722881 11.497C0.789047 11.3375 0.886021 11.1927 1.00825 11.0707L11.5082 0.57074C11.7547 0.324287 12.089 0.185833 12.4375 0.185833C12.786 0.185833 13.1203 0.324287 13.3668 0.57074C13.6132 0.817192 13.7517 1.15145 13.7517 1.49999C13.7517 1.84853 13.6132 2.18279 13.3668 2.42924L5.10587 10.6875L36.0625 10.6875C36.4106 10.6875 36.7444 10.8258 36.9906 11.0719C37.2367 11.3181 37.375 11.6519 37.375 12Z" fill="#04B358"/>
</svg>
