<svg width="20" height="20" viewBox="0 0 20 20" fill="none" xmlns="http://www.w3.org/2000/svg">
<path fill-rule="evenodd" clip-rule="evenodd" d="M5 2.5C5.46024 2.5 5.83333 2.8731 5.83333 3.33333V10.9763C6.18159 11.0994 6.5016 11.2994 6.76777 11.5656C7.23661 12.0344 7.5 12.6703 7.5 13.3333C7.5 13.9964 7.23661 14.6323 6.76777 15.1011C6.5016 15.3673 6.18159 15.5672 5.83333 15.6904V16.6667C5.83333 17.1269 5.46024 17.5 5 17.5C4.53976 17.5 4.16667 17.1269 4.16667 16.6667V15.6904C3.81841 15.5672 3.4984 15.3673 3.23223 15.1011C2.76339 14.6323 2.5 13.9964 2.5 13.3333C2.5 12.6703 2.76339 12.0344 3.23223 11.5656C3.4984 11.2994 3.81841 11.0994 4.16667 10.9763V3.33333C4.16667 2.8731 4.53976 2.5 5 2.5ZM5 14.1667C5.22101 14.1667 5.43298 14.0789 5.58926 13.9226C5.74554 13.7663 5.83333 13.5543 5.83333 13.3333C5.83333 13.1123 5.74554 12.9004 5.58926 12.7441C5.43298 12.5878 5.22101 12.5 5 12.5C4.77899 12.5 4.56702 12.5878 4.41074 12.7441C4.25446 12.9004 4.16667 13.1123 4.16667 13.3333C4.16667 13.5543 4.25446 13.7663 4.41074 13.9226C4.56702 14.0789 4.77899 14.1667 5 14.1667ZM10 2.5C10.4602 2.5 10.8333 2.8731 10.8333 3.33333V4.30964C11.1816 4.43278 11.5016 4.63273 11.7678 4.8989C12.2366 5.36774 12.5 6.00362 12.5 6.66667C12.5 7.32971 12.2366 7.96559 11.7678 8.43443C11.5016 8.7006 11.1816 8.90056 10.8333 9.02369V16.6667C10.8333 17.1269 10.4602 17.5 10 17.5C9.53976 17.5 9.16667 17.1269 9.16667 16.6667V9.02369C8.81841 8.90056 8.4984 8.7006 8.23223 8.43443C7.76339 7.96559 7.5 7.32971 7.5 6.66667C7.5 6.00362 7.76339 5.36774 8.23223 4.8989C8.4984 4.63273 8.81841 4.43278 9.16667 4.30964V3.33333C9.16667 2.8731 9.53976 2.5 10 2.5ZM10 7.5C10.221 7.5 10.433 7.4122 10.5893 7.25592C10.7455 7.09964 10.8333 6.88768 10.8333 6.66667C10.8333 6.44565 10.7455 6.23369 10.5893 6.07741C10.433 5.92113 10.221 5.83333 10 5.83333C9.77899 5.83333 9.56702 5.92113 9.41074 6.07741C9.25446 6.23369 9.16667 6.44565 9.16667 6.66667C9.16667 6.88768 9.25446 7.09964 9.41074 7.25592C9.56703 7.4122 9.77899 7.5 10 7.5ZM15 2.5C15.4602 2.5 15.8333 2.8731 15.8333 3.33333V10.9763C16.1816 11.0994 16.5016 11.2994 16.7678 11.5656C17.2366 12.0344 17.5 12.6703 17.5 13.3333C17.5 13.9964 17.2366 14.6323 16.7678 15.1011C16.5016 15.3673 16.1816 15.5672 15.8333 15.6904V16.6667C15.8333 17.1269 15.4602 17.5 15 17.5C14.5398 17.5 14.1667 17.1269 14.1667 16.6667V15.6904C13.8184 15.5672 13.4984 15.3673 13.2322 15.1011C12.7634 14.6323 12.5 13.9964 12.5 13.3333C12.5 12.6703 12.7634 12.0344 13.2322 11.5656C13.4984 11.2994 13.8184 11.0994 14.1667 10.9763V3.33333C14.1667 2.8731 14.5398 2.5 15 2.5ZM15 14.1667C15.221 14.1667 15.433 14.0789 15.5893 13.9226C15.7455 13.7663 15.8333 13.5543 15.8333 13.3333C15.8333 13.1123 15.7455 12.9004 15.5893 12.7441C15.433 12.5878 15.221 12.5 15 12.5C14.779 12.5 14.567 12.5878 14.4107 12.7441C14.2545 12.9004 14.1667 13.1123 14.1667 13.3333C14.1667 13.5543 14.2545 13.7663 14.4107 13.9226C14.567 14.0789 14.779 14.1667 15 14.1667Z" fill="black"/>
</svg>
