<svg width="22" height="24" viewBox="0 0 22 24" fill="none" xmlns="http://www.w3.org/2000/svg">
<path fill-rule="evenodd" clip-rule="evenodd" d="M0.499998 17.25C0.499998 17.4489 0.579015 17.6396 0.719668 17.7803C0.86032 17.921 1.05109 18 1.25 18H18.9395L14.219 22.719C14.0782 22.8598 13.9991 23.0508 13.9991 23.25C13.9991 23.4491 14.0782 23.6401 14.219 23.781C14.3598 23.9218 14.5508 24.0009 14.75 24.0009C14.9492 24.0009 15.1402 23.9218 15.281 23.781L21.281 17.781C21.3508 17.7113 21.4063 17.6285 21.4441 17.5374C21.4819 17.4463 21.5013 17.3486 21.5013 17.25C21.5013 17.1513 21.4819 17.0536 21.4441 16.9625C21.4063 16.8714 21.3508 16.7886 21.281 16.719L15.281 10.719C15.1402 10.5781 14.9492 10.499 14.75 10.499C14.5508 10.499 14.3598 10.5781 14.219 10.719C14.0782 10.8598 13.9991 11.0508 13.9991 11.25C13.9991 11.4491 14.0782 11.6401 14.219 11.781L18.9395 16.5H1.25C1.05109 16.5 0.86032 16.579 0.719668 16.7196C0.579015 16.8603 0.499998 17.0511 0.499998 17.25ZM21.5 6.74997C21.5 6.94888 21.421 7.13965 21.2803 7.2803C21.1397 7.42095 20.9489 7.49997 20.75 7.49997H3.0605L7.781 12.219C7.85073 12.2887 7.90604 12.3715 7.94378 12.4626C7.98152 12.5537 8.00095 12.6514 8.00095 12.75C8.00095 12.8486 7.98152 12.9462 7.94378 13.0373C7.90604 13.1285 7.85073 13.2112 7.781 13.281C7.71127 13.3507 7.62848 13.406 7.53737 13.4438C7.44626 13.4815 7.34861 13.5009 7.25 13.5009C7.15138 13.5009 7.05373 13.4815 6.96262 13.4438C6.87151 13.406 6.78873 13.3507 6.719 13.281L0.718998 7.28097C0.649153 7.2113 0.593739 7.12854 0.555929 7.03742C0.518119 6.9463 0.498657 6.84862 0.498657 6.74997C0.498657 6.65132 0.518119 6.55364 0.555929 6.46252C0.593739 6.3714 0.649153 6.28864 0.718998 6.21897L6.719 0.218971C6.85983 0.0781409 7.05083 -0.000976562 7.25 -0.000976562C7.44916 -0.000976563 7.64017 0.0781409 7.781 0.218971C7.92183 0.359801 8.00095 0.550807 8.00095 0.749971C8.00095 0.949135 7.92183 1.14014 7.781 1.28097L3.0605 5.99997H20.75C20.9489 5.99997 21.1397 6.07899 21.2803 6.21964C21.421 6.36029 21.5 6.55106 21.5 6.74997Z" fill="#04B358"/>
</svg>
